<?xml version="1.0" encoding="UTF-8" standalone="no"?>
<svg
   width="250"
   height="177"
   version="1.1"
   id="svg41"
   xmlns="http://www.w3.org/2000/svg"
   xmlns:svg="http://www.w3.org/2000/svg">
  <defs
     id="defs41" />
  <title
     id="title1" />
  <g
     id="g2">
    <title
       id="title2">Layer 1</title>
    <path
       stroke="#000000"
       stroke-width="1.7025"
       fill="#fddf13"
       d="M 0.8679542647259559 117.82093894283054 C 0.5588542647259559 116.10833894283054 4.610154264725956 113.80773894283054 7.163254264725956 111.26053894283055 C 9.716354264725956 108.71263894283054 11.080354264725957 107.63143894283054 12.864654264725957 105.43213894283055 C 14.648954264725957 103.23353894283055 15.627554264725957 102.32593894283055 16.817354264725957 100.85993894283054 C 18.149354264725957 89.34193894283054 24.312354264725958 80.04693894283055 28.315354264725954 66.91293894283055 C 29.612354264725955 62.616938942830544 35.63735426472596 48.30093894283054 37.21635426472596 41.55993894283054 C 51.558354264725956 5.6249389428305445 118.18935426472595 -3.4930610571694563 149.78635426472596 2.595938942830544 C 181.38235426472596 8.685438942830544 264.93635426472594 34.070938942830544 212.47935426472597 77.53393894283055 C 206.11765426472596 80.88023894283054 209.01865426472597 79.10183894283054 212.19655426472596 79.97853894283054 C 227.46455426472596 79.68915894283055 233.91555426472596 63.783538942830546 249.49755426472595 57.97753894283054 C 242.06245426472594 77.88253894283055 247.23715426472594 100.46453894283054 242.00855426472594 130.42453894283054 C 242.00855426472594 130.42453894283054 226.83855426472596 107.17553894283054 218.55955426472596 106.29253894283055 C 210.28065426472597 105.40992894283055 218.55955426472596 111.39353894283055 221.65985426472596 114.15643894283055 C 224.76605426472597 116.92003894283054 233.04985426472595 124.64943894283054 233.38185426472594 141.56443894283055 C 233.71727426472594 158.48043894283055 190.54185426472597 174.10943894283054 168.27785426472596 176.35043894283055 C 161.63925426472596 177.04166894283054 158.00985426472596 173.12453894283055 152.00285426472595 172.13933894283053 C 145.99495426472595 171.15412894283054 137.75185426472595 169.32843894283053 132.78985426472596 170.65033894283056 C 127.82765426472595 171.97223894283056 95.90485426472596 175.12193894283055 72.63485426472596 167.78683894283054 C 54.68785426472596 162.11683894283055 46.58985426472596 152.23683894283053 41.59785426472595 149.39683894283056 C 36.60485426472596 146.55683894283055 3.405854264725956 125.45683894283054 3.405854264725956 125.45683894283054 S 0.6120542647259559 124.40583894283054 1.9760542647259558 123.32393894283054 C 3.3394542647259557 122.24273894283054 7.5327542647259556 121.26933894283054 7.5327542647259556 121.26933894283054 C 7.533524264725956 121.26933894283054 0.7928542647259559 119.68953894283054 0.8651542647259559 117.80333894283055 L 0.8679542647259559 117.82093894283054 z"
       id="imagebot_41" />
  </g>
  <g
     id="g3">
    <title
       id="title3">Layer 2</title>
    <path
       fill="#ff6600"
       d="M 79.01199426472596 129.98093894283053 C 81.45919426472595 131.16473894283055 83.30799426472596 131.70273894283054 83.46189426472596 133.39103894283053 C 83.61315426472595 135.07933894283053 81.83219426472596 137.72123894283055 80.51939426472596 137.01683894283053 C 79.20669426472595 136.31245894283055 77.63479426472595 130.14673894283055 79.01199426472596 129.98093894283053 z"
       id="imagebot_40" />
  </g>
  <g
     id="g4">
    <title
       id="title4">Layer 3</title>
    <path
       fill="#ff6600"
       d="M 76.50899426472596 142.51093894283053 C 77.95059426472595 141.47513894283054 79.72569426472596 140.67073894283055 80.93449426472596 141.65134894283054 C 82.14329426472595 142.63258894283055 84.28339426472596 145.33104894283053 83.84929426472596 146.90354894283055 C 83.41522426472595 148.47604894283054 80.23929426472596 150.06834894283054 79.25469426472596 149.74994894283054 C 78.26949426472595 149.43425894283055 75.73539426472595 144.00774894283055 76.50889426472595 142.51084894283053 L 76.50899426472596 142.51093894283053 z"
       id="imagebot_39" />
  </g>
  <g
     id="g5">
    <title
       id="title5">Layer 4</title>
    <path
       fill="#ff6600"
       d="M 71.14999426472596 143.33093894283056 C 73.49329426472596 144.79103894283054 73.72279426472596 145.29873894283054 73.46239426472596 146.41023894283055 C 73.19932426472596 147.52173894283055 70.42329426472595 149.31583894283054 69.62349426472596 148.22603894283054 C 68.82376426472595 147.13623894283054 70.31471426472595 143.17443894283053 71.14999426472596 143.33093894283056 z"
       id="imagebot_38" />
  </g>
  <g
     id="g6">
    <title
       id="title6">Layer 5</title>
    <path
       fill="#ff6600"
       d="M 74.27199426472596 134.20093894283053 C 76.42519426472596 135.74713894283053 77.42689426472596 136.43973894283053 76.92969426472595 138.04113894283054 C 76.42985426472596 139.64193894283054 72.76529426472595 141.83853894283055 72.24829426472596 140.69753894283053 C 71.72873426472596 139.55583894283055 72.76128426472596 133.73863894283053 74.27199426472596 134.20093894283053 z"
       id="imagebot_37" />
  </g>
  <g
     id="g7">
    <title
       id="title7">Layer 6</title>
    <path
       fill="#ff6600"
       d="M 87.07599426472595 136.65093894283055 C 90.22699426472596 137.36320894283054 91.25289426472595 136.58513894283055 91.36009426472596 138.68383894283053 C 91.46532426472595 140.77523894283055 88.90829426472595 146.59703894283055 87.27989426472595 145.19483894283056 C 85.65079426472596 143.79333894283053 84.94049426472596 140.37003894283055 85.36209426472595 139.10863894283054 C 85.78301426472595 137.84783894283055 86.03359426472596 136.20563894283055 87.07599426472595 136.65083894283055 L 87.07599426472595 136.65093894283055 z"
       id="imagebot_36" />
  </g>
  <g
     id="g8">
    <title
       id="title8">Layer 7</title>
    <path
       fill="#ff6600"
       d="M 91.34099426472595 155.50093894283054 C 92.95099426472595 153.31873894283055 93.98489426472595 150.71033894283053 92.18874426472595 149.61333894283055 C 90.39264426472596 148.51693894283054 88.20324426472595 148.74519894283054 88.04664426472596 149.54753894283056 C 87.88880426472596 150.41501894283056 89.29034426472596 155.36013894283053 91.34094426472596 155.50083894283054 L 91.34099426472595 155.50093894283054 z"
       id="imagebot_35" />
  </g>
  <g
     id="g9">
    <title
       id="title9">Layer 8</title>
    <path
       fill="#ff6600"
       d="M 81.35499426472596 151.85093894283054 C 80.25859426472596 152.80589894283054 80.83542426472596 154.75983894283056 81.75617426472596 155.94763894283054 C 82.67691426472595 157.13543894283055 86.53157426472596 156.53296894283054 86.78147426472596 154.89333894283055 C 87.03139426472596 153.25173894283054 85.75487426472596 150.77293894283054 84.41847426472596 150.69073894283054 C 83.08467426472596 150.61173894283056 81.74697426472595 151.36749894283054 81.35497426472595 151.85093894283054 L 81.35499426472596 151.85093894283054 z"
       id="imagebot_34" />
  </g>
  <g
     id="g10">
    <title
       id="title10">Layer 9</title>
    <path
       fill="#ff6600"
       d="M 72.22999426472596 151.78093894283055 C 71.14419426472595 154.10713894283055 75.40129426472596 154.39393894283054 76.19709426472596 153.95723894283054 C 76.99222426472596 153.52316894283055 78.07809426472596 151.19433894283054 76.86923426472596 150.21303894283054 C 75.66043426472595 149.23243894283056 72.89883426472596 151.40143894283054 72.22993426472596 151.78093894283055 L 72.22999426472596 151.78093894283055 z"
       id="imagebot_33" />
  </g>
  <g
     id="g11">
    <title
       id="title11">Layer 10</title>
    <path
       fill="#ff6600"
       d="M 93.58999426472596 143.94093894283054 C 92.88365426472596 146.93603894283055 93.89252426472595 148.31383894283056 94.47655426472596 149.27073894283055 C 95.06188426472596 150.22765894283054 99.90175426472595 145.89483894283055 98.76265426472595 144.73013894283054 C 97.62355426472595 143.56473894283053 94.40355426472595 143.03723894283056 93.58995426472596 143.94091894283054 L 93.58999426472596 143.94093894283054 z"
       id="imagebot_32" />
  </g>
  <g
     id="g12">
    <title
       id="title12">Layer 11</title>
    <path
       fill="#ff6600"
       d="M 82.62199426472596 127.66093894283054 C 83.10210426472595 130.57703894283054 83.62499426472596 132.40343894283055 84.99029426472596 132.54943894283053 C 86.35499426472596 132.69412894283053 88.07279426472596 131.76350894283055 86.91069426472596 130.37973894283056 C 85.74859426472595 128.99533894283056 83.49869426472596 126.72893894283054 82.62199426472596 127.66093894283054 z"
       id="imagebot_31" />
  </g>
  <g
     id="g13">
    <title
       id="title13">Layer 12</title>
    <path
       fill="#ff6600"
       d="M 55.381994264725954 33.01693894283054 C 58.170594264725956 26.026438942830545 62.876294264725956 17.708938942830542 66.40099426472595 15.882938942830544 C 69.92549426472596 14.056538942830544 76.47299426472595 11.318638942830544 76.47299426472595 11.318638942830544 S 67.11089426472596 14.415638942830544 63.737994264725955 19.609338942830544 C 60.36479426472596 24.803038942830543 57.404494264725955 31.412338942830544 55.38219426472595 33.016338942830544 L 55.381994264725954 33.01693894283054 z"
       id="imagebot_30" />
  </g>
  <g
     id="g14">
    <title
       id="title14">Layer 13</title>
    <path
       fill="#ff6600"
       d="M 57.692994264725954 36.09293894283054 C 61.463994264725955 30.260938942830546 67.18799426472596 22.169938942830544 68.86599426472596 19.805938942830544 S 76.38699426472596 11.128938942830544 88.66899426472595 7.395938942830544 C 100.94999426472596 3.663238942830544 99.01399426472595 5.456638942830544 99.01399426472595 5.456638942830544 S 89.63679426472595 6.499038942830544 82.46499426472596 10.894338942830544 C 75.29429426472596 15.288938942830544 69.50099426472596 22.724338942830546 63.77599426472596 30.816338942830544 C 58.051594264725956 38.90773894283054 57.69179426472596 36.09293894283054 57.69179426472596 36.09293894283054 L 57.692994264725954 36.09293894283054 z"
       id="imagebot_29" />
  </g>
  <g
     id="g15">
    <title
       id="title15">Layer 14</title>
    <path
       fill="#ff6600"
       d="M 61.29499426472596 42.01993894283054 C 63.19829426472596 38.63743894283054 75.23799426472596 19.207938942830545 81.06199426472595 15.881938942830544 C 86.88509426472595 12.556038942830543 94.86899426472596 6.417938942830544 106.68099426472595 5.187938942830544 C 118.49399426472596 3.958038942830544 113.41559426472595 4.885408942830544 113.41559426472595 4.885408942830544 S 103.48599426472596 5.720008942830544 92.35959426472596 10.991308942830544 C 75.89659426472596 19.248508942830544 71.73059426472595 30.153308942830545 62.518594264725955 44.213308942830544 L 61.29499426472596 42.01993894283054 z"
       id="imagebot_28" />
  </g>
  <g
     id="g16">
    <title
       id="title16">Layer 15</title>
    <path
       fill="#ff6600"
       d="M 65.79399426472595 48.914938942830545 C 69.25899426472596 38.869938942830544 81.91499426472596 25.346938942830544 84.09299426472596 22.067938942830544 C 86.26999426472595 18.791938942830544 93.62099426472595 11.026938942830544 107.01999426472595 8.469938942830543 C 116.23999426472595 7.467838942830544 128.27999426472596 6.854238942830544 128.27999426472596 6.854238942830544 S 112.68499426472596 9.339638942830543 107.43599426472596 9.886838942830543 C 102.18599426472596 10.432938942830544 93.43999426472595 14.394938942830544 86.19499426472595 23.174838942830544 C 78.94999426472596 31.955838942830542 68.96999426472595 46.327838942830546 67.37799426472596 48.88183894283054 C 65.78639426472596 51.43563894283054 65.78969426472595 48.88183894283054 65.78969426472595 48.88183894283054 L 65.79399426472595 48.914938942830545 z"
       id="imagebot_27" />
  </g>
  <g
     id="g17">
    <title
       id="title17">Layer 16</title>
    <path
       fill="#ff6600"
       d="M 69.25699426472596 56.04993894283054 C 81.30099426472596 43.13093894283055 97.21999426472595 13.700938942830543 117.71999426472595 14.387938942830544 C 122.51119426472596 14.729938942830543 141.17499426472597 9.027238942830545 141.17499426472597 9.027238942830545 S 125.40199426472596 16.174938942830543 120.54899426472596 16.083438942830544 C 94.24199426472596 18.157738942830544 88.26199426472596 43.538438942830545 69.50999426472596 59.14143894283055 C 68.74972426472596 59.483438942830546 69.25350426472596 56.05033894283054 69.25350426472596 56.05033894283054 L 69.25699426472596 56.04993894283054 z"
       id="imagebot_26" />
  </g>
  <g
     id="g18">
    <title
       id="title18">Layer 17</title>
    <path
       fill="#ff6600"
       d="M 72.57699426472595 66.91493894283055 C 94.65399426472595 33.533938942830545 117.38999426472596 17.479938942830543 146.12999426472595 13.884938942830544 C 105.89999426472596 24.083938942830542 91.10499426472596 47.664938942830545 73.90399426472595 68.83293894283054 L 72.57699426472595 66.91493894283055 z"
       id="imagebot_25" />
  </g>
  <g
     id="g19">
    <title
       id="title19">Layer 18</title>
    <path
       fill="#ff6600"
       d="M 75.88499426472596 73.20393894283055 C 99.80199426472596 41.414938942830545 120.11999426472596 30.208938942830542 153.04999426472597 18.537938942830543 C 121.22999426472596 31.124938942830543 94.37199426472596 52.33793894283055 77.24499426472596 76.71093894283054 L 75.88499426472596 73.20393894283055 z"
       id="imagebot_24" />
  </g>
  <g
     id="g20">
    <title
       id="title20">Layer 19</title>
    <path
       fill="#ff6600"
       d="M 79.16899426472595 85.00193894283055 C 98.46699426472595 54.11093894283054 131.92999426472596 40.44693894283054 161.39999426472596 24.832938942830545 C 132.35999426472597 42.29693894283054 93.29399426472595 64.00193894283055 80.00999426472596 89.88893894283055 L 79.16899426472595 85.00193894283055 z"
       id="imagebot_23" />
  </g>
  <g
     id="g21">
    <title
       id="title21">Layer 20</title>
    <path
       fill="#ff6600"
       d="M 81.07299426472595 96.27893894283055 C 78.91799426472596 94.11893894283054 109.21999426472595 63.201938942830544 131.84999426472595 52.65093894283054 C 152.25999426472595 43.14193894283054 159.29999426472597 36.82193894283054 170.51999426472597 30.315938942830545 C 161.92999426472596 39.875938942830544 139.04999426472597 51.92193894283054 129.06999426472595 57.119938942830544 C 112.58999426472596 65.70293894283054 81.08799426472595 98.33393894283054 81.51899426472596 99.28493894283055 C 81.95306426472595 100.23462894283054 81.07177426472596 96.27933894283055 81.07177426472596 96.27933894283055 L 81.07299426472595 96.27893894283055 z"
       id="imagebot_22" />
  </g>
  <g
     id="g22">
    <title
       id="title22">Layer 21</title>
    <path
       fill="#ff6600"
       d="M 80.00499426472595 109.59093894283055 C 102.78999426472596 75.80493894283055 153.43999426472595 67.09393894283055 176.19999426472594 38.283938942830545 C 151.51999426472597 71.77493894283054 107.39999426472596 79.66193894283055 81.00599426472596 110.28093894283055 C 80.02013426472595 111.64363894283055 80.00499426472595 109.58905894283055 80.00499426472595 109.58905894283055 L 80.00499426472595 109.59093894283055 z"
       id="imagebot_21" />
  </g>
  <g
     id="g23">
    <title
       id="title23">Layer 22</title>
    <path
       fill="#ff6600"
       d="M 94.03599426472596 116.29093894283055 C 115.52999426472596 85.43593894283055 156.74999426472596 79.13593894283055 180.99999426472596 49.39193894283054 C 161.15999426472595 81.17893894283054 117.41999426472596 93.28993894283055 97.62299426472596 120.16093894283054 C 91.95969426472595 123.01003894283055 91.99789426472596 120.57527894283055 94.03599426472596 116.28913894283055 L 94.03599426472596 116.29093894283055 z"
       id="imagebot_20" />
  </g>
  <g
     id="g24">
    <title
       id="title24">Layer 23</title>
    <path
       fill="#ff6600"
       d="M 101.51999426472595 125.72093894283054 C 120.61599426472596 99.58893894283054 170.54699426472595 88.71993894283054 184.96399426472595 58.128938942830544 C 169.44299426472597 99.10593894283055 127.64199426472595 102.57093894283054 106.52499426472596 124.68493894283054 C 100.08899426472595 131.42483894283055 99.48649426472596 130.11213894283054 101.52009426472596 125.72143894283055 L 101.51999426472595 125.72093894283054 z"
       id="imagebot_19" />
  </g>
  <g
     id="g25">
    <title
       id="title25">Layer 24</title>
    <path
       fill="#ff6600"
       d="M 98.70399426472595 140.74093894283055 C 109.82099426472595 138.00693894283054 105.35769426472595 133.29863894283054 131.01599426472595 121.05893894283055 S 175.22599426472595 94.84993894283055 190.25599426472596 70.24593894283055 C 177.75899426472594 103.61493894283055 151.14799426472595 119.04693894283055 126.58499426472595 129.48093894283053 C 102.02199426472596 139.91393894283055 106.57199426472596 144.96393894283054 102.66999426472596 144.44193894283055 C 98.76799426472596 143.92236894283053 98.70289426472596 140.74183894283055 98.70289426472596 140.74183894283055 L 98.70399426472595 140.74093894283055 z"
       id="imagebot_18" />
  </g>
  <g
     id="g26">
    <title
       id="title26">Layer 25</title>
    <path
       fill="#ff6600"
       d="M 106.62999426472595 153.19093894283054 C 110.78059426472596 147.18693894283055 117.24199426472596 144.25903894283056 122.90799426472596 142.60793894283054 C 128.57389426472596 140.95653894283055 157.42399426472596 128.79893894283055 173.60699426472596 110.92893894283054 C 187.74499426472596 95.31593894283054 192.81199426472597 77.48693894283055 192.81199426472597 77.48693894283055 S 187.42559426472596 107.02393894283054 165.61399426472596 124.62993894283055 S 120.84399426472595 144.37593894283054 106.63099426472596 153.19193894283055 L 106.62999426472595 153.19093894283054 z"
       id="imagebot_17" />
  </g>
  <g
     id="g27">
    <title
       id="title27">Layer 26</title>
    <path
       fill="#ff6600"
       d="M 111.87999426472595 157.68093894283055 C 113.22819426472596 156.61153894283055 143.29699426472595 149.12783894283055 166.86799426472595 133.40693894283055 C 182.56699426472596 122.93593894283055 192.27199426472595 101.54993894283055 194.07699426472595 93.40193894283054 C 195.88229426472594 85.25393894283054 188.24599426472597 118.95093894283055 172.93099426472597 133.67993894283055 C 159.35899426472596 146.73193894283054 120.73899426472596 155.82693894283054 113.89799426472595 158.92693894283053 C 107.05619426472596 162.02723894283054 106.21499426472596 159.33470894283053 111.88019426472596 157.68133894283054 L 111.87999426472595 157.68093894283055 z"
       id="imagebot_16" />
  </g>
  <g
     id="g28">
    <title
       id="title28">Layer 27</title>
    <path
       fill="#ff6600"
       d="M 120.88999426472596 161.39093894283053 C 155.29599426472595 159.83883894283053 175.79499426472594 144.82993894283055 195.05799426472595 111.74493894283054 C 195.05799426472595 111.74493894283054 177.94299426472597 162.26793894283054 127.06899426472596 163.17893894283054 C 117.66939426472595 162.25028894283054 124.03179426472596 162.25687894283055 120.89009426472596 161.39003894283056 L 120.88999426472596 161.39093894283053 z"
       id="imagebot_15" />
  </g>
  <g
     id="g29">
    <title
       id="title29">Layer 28</title>
    <path
       stroke="#000000"
       stroke-linecap="round"
       stroke-width="1.0215"
       fill="#000000"
       d="M 42.54399426472595 149.45093894283053 C 50.68479426472596 149.01028894283056 51.802194264725955 149.45093894283053 56.697994264725956 144.88993894283055 C 88.46999426472595 121.41993894283054 83.68199426472596 73.24993894283054 50.018994264725954 27.879938942830545 C 38.01099426472596 28.832938942830545 35.66099426472596 48.564938942830544 32.65799426472596 57.06693894283055 C 31.816824264725955 59.301738942830546 26.915094264725955 68.93793894283054 26.248194264725957 71.55793894283055 C 25.581314264725957 74.17683894283054 19.796394264725954 92.09293894283054 18.955794264725956 94.32793894283054 C 18.114614264725954 96.56273894283055 17.760094264725957 100.89483894283055 16.571094264725957 102.36013894283055 C 15.381394264725955 103.82613894283054 1.8890942647259559 117.20313894283055 1.8890942647259559 117.20313894283055 S 9.392594264725956 117.19913894283054 12.954094264725956 117.90290894283055 C 16.517394264725954 118.60530894283055 22.206294264725955 122.97890894283054 22.206294264725955 122.97890894283054 S 21.227004264725956 123.88649894283054 18.187894264725955 124.33700894283055 C 15.147494264725957 124.78422894283054 10.365494264725957 121.39390894283055 7.499894264725956 122.22850894283054 C 4.634394264725956 123.06374894283054 2.675794264725956 124.87830894283054 2.675794264725956 124.87830894283054 L 42.54399426472595 149.45093894283053 z"
       id="imagebot_14" />
  </g>
  <g
     id="g30">
    <title
       id="title30">Layer 29</title>
    <path
       stroke="#000000"
       stroke-linecap="round"
       stroke-width="1.0215"
       fill="#000000"
       d="M 1.2164942647259558 118.59093894283055 C 3.000094264725956 116.39163894283054 7.121794264725956 117.30513894283054 10.125394264725957 117.79710894283055 C 13.128994264725955 118.29037894283054 22.627394264725957 121.86420894283054 21.612394264725957 123.71490894283055 C 20.596894264725957 125.56560894283055 9.596394264725955 121.74510894283054 7.2893942647259555 122.79020894283055 C 4.983594264725956 123.83590894283054 1.5583942647259559 124.46000894283054 1.5583942647259559 124.46000894283054 C 3.541294264725956 123.02690894283054 5.6083942647259555 122.01940894283054 7.884594264725956 122.05680894283054 L 1.2164942647259558 118.59093894283055 z"
       id="imagebot_13" />
  </g>
  <g
     id="g31">
    <title
       id="title31">Layer 30</title>
    <path
       stroke="#000000"
       stroke-linecap="round"
       stroke-width="1.0215"
       fill="#ffffff"
       d="M 48.76999426472596 97.73293894283054 A 9.4978 9.4978 0 1 1 31.467994264725956 105.57093894283054 A 9.4978 9.4978 0 1 1 48.76999426472596 97.73293894283054 z"
       id="imagebot_12" />
  </g>
  <g
     id="g32">
    <title
       id="title32">Layer 31</title>
    <path
       stroke="#000000"
       stroke-linecap="round"
       stroke-width="1.0215"
       fill="#ffffff"
       d="M 45.045994264725955 69.06393894283055 C 48.29029426472596 73.15533894283054 52.165394264725954 75.57033894283055 52.718494264725955 80.88093894283054 C 53.27093426472596 86.19233894283055 51.16899426472595 91.77893894283055 53.11967426472596 95.06493894283054 C 55.07237426472596 98.35133894283054 52.344924264725954 100.51443894283054 52.26732426472596 107.50193894283055 C 52.188384264725954 114.48843894283054 50.05092426472596 121.01893894283054 51.27028426472596 123.71093894283054 C 52.49028426472596 126.40213894283055 55.72278426472596 140.69493894283053 55.72278426472596 140.69493894283053 S 60.895384264725955 138.81393894283053 61.35188426472595 136.75343894283054 C 61.805684264725954 134.69223894283056 60.20418426472595 132.17533894283054 59.26708426472596 127.03883894283054 C 58.32989426472596 121.90233894283054 58.443674264725956 113.97283894283055 59.780074264725954 108.73383894283054 C 61.11387426472596 103.49473894283054 65.07247426472595 93.82183894283054 64.09837426472596 89.62883894283054 C 63.12500426472596 85.43543894283054 61.761674264725954 86.51733894283055 60.92637426472596 83.65113894283054 C 60.091124264725956 80.78563894283054 61.465674264725955 69.50313894283055 59.862274264725954 66.98513894283055 C 58.258874264725954 64.46823894283054 46.42227426472596 57.782238942830546 42.99827426472596 58.407038942830546 C 39.573774264725955 59.03183894283055 36.36557426472596 53.997938942830544 33.21727426472596 57.27843894283055 C 30.069674264725958 60.55823894283054 27.859174264725954 68.97543894283055 27.859174264725954 68.97543894283055 S 34.082774264725956 64.30133894283054 36.353774264725956 64.19873894283054 C 38.624074264725955 64.10008894283054 45.04567426472595 69.06493894283054 45.04567426472595 69.06493894283054 L 45.045994264725955 69.06393894283055 z"
       id="imagebot_11" />
  </g>
  <g
     id="g33">
    <title
       id="title33">Layer 32</title>
    <path
       stroke="#000000"
       stroke-linecap="round"
       stroke-width="1.0215"
       fill="#ffffff"
       d="M 3.096794264725956 123.76093894283055 C 5.188194264725956 123.05458894283055 7.761094264725956 123.13613894283054 10.225994264725957 123.41894894283054 C 12.496994264725956 123.67543894283054 14.676494264725957 124.11475894283055 16.301594264725956 124.26734894283054 C 19.689994264725957 124.58303894283054 23.288794264725954 124.34634894283055 22.417394264725957 122.42254894283055 C 21.546624264725956 120.50014894283055 16.902094264725957 118.43304894283054 16.974394264725955 116.54754894283055 C 17.046704264725957 114.66064894283055 19.881994264725957 109.66824894283054 21.803794264725955 108.79674894283055 C 23.726194264725954 107.92598894283054 29.872194264725955 110.23834894283054 31.759094264725956 110.31074894283054 C 33.645294264725955 110.38314894283054 37.827494264725956 119.61034894283054 39.11329426472596 125.51674894283055 C 40.39909426472595 131.42204894283054 39.63285426472596 131.77064894283055 40.567394264725955 136.90674894283055 C 41.504584264725956 142.04394894283055 38.71139426472595 140.99224894283054 43.84129426472595 145.15604894283055 C 48.97249426472595 149.31914894283054 49.39279426472596 148.20114894283054 45.932094264725954 149.76904894283055 C 42.47269426472596 151.33824894283055 40.657494264725955 149.38102894283054 38.63319426472596 147.97954894283055 C 36.608894264725954 146.57934894283053 13.815194264725957 130.02954894283053 11.370194264725956 129.74754894283055 C 8.924894264725957 129.46473894283054 3.097194264725956 123.76204894283055 3.097194264725956 123.76204894283055 L 3.096794264725956 123.76093894283055 z"
       id="imagebot_10" />
  </g>
  <g
     id="g34">
    <title
       id="title34">Layer 33</title>
    <path
       stroke="#000000"
       stroke-linecap="round"
       stroke-width="1.0215"
       fill="#ffffff"
       d="M 12.059994264725956 106.72093894283054 C 15.796294264725956 107.80803894283055 17.893594264725955 107.31942894283054 19.082694264725955 105.85543894283055 C 20.272394264725957 104.39013894283055 22.507194264725957 105.23062894283055 23.871294264725957 104.14943894283054 C 25.234694264725956 103.06753894283054 26.670394264725957 100.10013894283054 26.430294264725955 96.50123894283054 C 26.186944264725955 92.90303894283055 24.447394264725958 89.05763894283055 24.447394264725958 89.05763894283055 L 20.710494264725956 87.97113894283055 S 18.740094264725958 99.98613894283055 17.166294264725956 101.62613894283055 C 15.592494264725955 103.26703894283054 12.060094264725956 106.72113894283055 12.060094264725956 106.72113894283055 L 12.059994264725956 106.72093894283054 z"
       id="imagebot_9" />
  </g>
  <g
     id="g35">
    <title
       id="title35">Layer 34</title>
    <path
       stroke="#000000"
       stroke-linecap="round"
       stroke-width="1.0215"
       fill="#000000"
       d="M 112.22999426472596 1.7592389428305442 C 168.03999426472595 3.042338942830544 211.44999426472594 49.96923894283054 213.83999426472596 74.94323894283055 C 265.35999426472597 31.452238942830544 170.81999426472595 3.766238942830544 131.87999426472595 0.6422389428305441 C 129.83999426472596 0.194888942830544 112.22999426472596 1.7595389428305441 112.22999426472596 1.7595389428305441 L 112.22999426472596 1.7592389428305442 z"
       id="imagebot_8" />
  </g>
  <g
     id="g36">
    <title
       id="title36">Layer 35</title>
    <path
       stroke="#000000"
       stroke-linecap="round"
       stroke-width="1.0215"
       fill="#000000"
       d="M 223.26999426472597 116.67093894283055 C 232.37879426472597 146.67793894283054 192.11599426472597 171.18893894283053 164.69299426472597 173.14293894283054 C 159.65119426472594 173.14293894283054 155.33359426472595 173.72169894283056 155.33359426472595 173.72169894283056 S 167.13959426472596 177.53359894283054 170.90459426472594 176.74369894283055 C 198.59959426472597 168.78839894283055 229.96759426472596 159.01769894283055 232.77059426472596 143.21469894283055 C 235.57429426472595 127.40869894283054 223.26979426472596 116.67069894283054 223.26979426472596 116.67069894283054 L 223.26999426472597 116.67093894283055 z"
       id="imagebot_7" />
  </g>
  <g
     id="g37">
    <title
       id="title37">Layer 36</title>
    <path
       fill="#ff6600"
       d="M 222.89999426472596 66.61493894283055 C 217.00649426472594 76.14863894283054 204.30499426472596 80.82093894283054 212.36899426472596 80.27193894283054 C 223.01699426472595 81.02036894283054 229.03599426472596 71.24193894283054 247.39599426472594 59.021938942830545 C 237.92609426472595 87.61093894283054 234.65999426472595 107.16593894283055 241.51299426472596 130.40093894283055 C 240.63564426472595 124.76063894283054 220.67999426472596 100.74393894283054 214.67599426472594 106.51593894283054 C 213.84403426472596 108.72513894283054 225.30899426472595 117.13693894283054 225.75399426472595 120.14193894283055 C 234.75629426472597 147.58593894283055 190.25399426472595 178.23693894283053 159.41099426472596 174.62493894283054 C 156.26989426472596 173.75810894283055 154.82039426472596 172.58213894283054 154.82039426472596 172.58213894283054 L 139.85339426472595 169.82773894283054 S 155.08239426472596 155.97073894283054 169.38239426472595 153.15573894283054 C 183.68339426472596 150.34023894283055 200.00839426472595 128.73973894283054 201.11839426472596 124.11373894283054 C 202.22859426472596 119.48693894283055 204.21149426472596 106.67773894283054 199.86489426472596 103.14973894283054 C 195.51759426472594 99.62193894283054 195.79649426472596 97.20493894283054 195.66499426472595 90.85073894283055 C 195.53345426472595 84.49553894283055 198.78309426472595 82.56523894283055 195.75049426472594 73.85973894283055 C 187.28049426472595 32.87373894283054 155.55049426472596 3.782738942830544 112.31049426472596 2.457738942830544 C 145.72049426472594 -4.281461057169456 248.76049426472596 26.395738942830544 222.90049426472595 66.61173894283054 L 222.89999426472596 66.61493894283055 z"
       id="imagebot_6" />
  </g>
  <g
     id="g38">
    <title
       id="title38">Layer 37</title>
    <path
       stroke="#000000"
       stroke-linecap="round"
       stroke-width="1.0215"
       fill="#ff6600"
       d="M 81.42999426472596 115.60093894283054 C 83.70159426472595 115.49570894283055 84.99329426472596 116.30333894283055 87.79239426472596 112.25403894283055 C 90.59219426472596 108.20473894283055 101.82239426472596 89.27303894283054 105.18039426472596 85.43403894283054 C 109.72629426472595 77.03743894283055 127.23139426472595 69.53803894283054 126.77839426472596 71.35403894283054 C 132.85859426472595 75.40793894283054 131.31309426472595 87.15303894283055 129.11969426472595 90.58703894283055 C 127.52749426472596 93.07963894283054 129.46826426472595 96.94023894283055 129.48799426472596 98.92113894283054 C 127.27029426472596 127.29313894283054 115.81399426472595 136.27113894283053 115.81399426472595 136.27113894283053 C 114.72689426472596 140.00873894283055 108.06389426472596 142.40073894283054 104.01499426472596 139.60093894283054 C 99.96569426472595 136.80123894283054 96.07349426472595 133.79103894283054 92.05999426472596 130.04813894283055 C 88.04679426472596 126.30523894283054 84.71699426472595 124.36973894283054 83.11289426472595 121.85273894283054 C 81.50619426472596 119.33513894283054 81.43059426472595 115.60083894283055 81.43059426472595 115.60083894283055 L 81.42999426472596 115.60093894283054 z"
       id="imagebot_5" />
  </g>
  <g
     id="g39">
    <title
       id="title39">Layer 38</title>
    <path
       fill="#000000"
       d="M38.541,101.14A2.6556,2.6556 0 0 1 33.2299,101.14A2.6556,2.6556 0 1 1 38.541,101.14z"
       id="imagebot_4" />
  </g>
  <g
     id="g40">
    <title
       id="title40">Layer 39</title>
    <path
       stroke="#000000"
       stroke-linecap="round"
       stroke-width="1.0215"
       fill="#000000"
       d="M 248.51999426472597 58.743938942830546 C 237.04599426472595 75.08693894283054 233.64399426472596 96.21093894283054 241.23749426472597 129.31493894283054 C 247.28679426472596 99.20993894283055 240.51471426472597 91.45193894283054 248.51999426472597 58.743938942830546 z"
       id="imagebot_3" />
  </g>
  <g
     id="g41">
    <title
       id="title41">Layer 40</title>
    <path
       stroke="#000000"
       stroke-linecap="round"
       stroke-width="1.0215"
       fill="#ff6600"
       d="M 93.42499426472595 166.50093894283054 C 94.01032426472595 163.98133894283055 134.21599426472596 161.10603894283054 139.77199426472595 165.65648894283055 C 142.05479426472596 167.52558894283055 135.34379426472594 172.46478894283055 131.13139426472597 171.86298894283055 C 125.48129426472596 171.05468894283055 95.86439426472596 167.17768894283054 93.42539426472595 166.50088894283056 L 93.42499426472595 166.50093894283054 z"
       id="imagebot_2" />
    <metadata
       id="imagebot_52">image/svg+xmllogoabril 2011M Mlogolentesglassesverdeblancogrisnegrologo de un website</metadata>
    <path
       transform="matrix(0.319257 0 0 0.319257 -26.6909 -15.5257)"
       label="Capa 1"
       fill="rgb(255, 255, 255)"
       stroke="rgb(0, 0, 0)"
       stroke-width="5.7"
       stroke-miterlimit="4"
       stroke-opacity="0.61497"
       id="imagebot_49"
       d="M 240.90349964904783 363.85179037231444 C 240.90349964904783 383.57020037231445 224.91857964904784 399.55512037231443 205.20016964904787 399.55512037231443 C 185.48176964904786 399.55512037231443 169.49684964904785 383.57020037231445 169.49684964904785 363.85179037231444 C 169.49684964904785 344.13339037231447 185.48176964904786 328.1484703723145 205.20016964904787 328.1484703723145 C 224.91857964904784 328.1484703723145 240.90349964904783 344.13339037231447 240.90349964904783 363.85179037231444 z" />
    <path
       label="Capa 1"
       opacity="0.83857"
       fill="rgb(0, 0, 0)"
       transform="matrix(0.323883 0 0 0.323883 -33.8205 3.27407)"
       d="M244.28591,306.53854C244.28591,313.28431 238.48085,318.75284 231.31996,318.75284C224.15907,318.75284 218.35402,313.28431 218.35402,306.53854C218.35402,299.79277 224.15907,294.32425 231.31996,294.32425C238.48085,294.32425 244.28591,299.79277 244.28591,306.53854z"
       id="imagebot_46" />
    <path
       label="Capa 1"
       opacity="0.83857"
       fill="rgb(0, 0, 0)"
       id="imagebot_45"
       d="M244.28591,306.53854C244.28591,313.28431 238.48085,318.75284 231.31996,318.75284C224.15907,318.75284 218.35402,313.28431 218.35402,306.53854C218.35402,299.79277 224.15907,294.32425 231.31996,294.32425C238.48085,294.32425 244.28591,299.79277 244.28591,306.53854z"
       transform="matrix(0.323883 0 0 0.323883 -3.1086 3.27407)" />
  </g>
  <metadata
     id="metadata41">image/svg+xmlOpenclipart</metadata>
</svg>
